<?xml version="1.0" encoding="UTF-8"?>
<svg version="1.1" xmlns="http://www.w3.org/2000/svg" width="500" height="500">
<path d="M0 0 C0.9546666 -0.00571014 1.90933319 -0.01142029 2.89292908 -0.01730347 C4.46158722 -0.01898026 4.46158722 -0.01898026 6.06193542 -0.02069092 C7.71599648 -0.02813828 7.71599648 -0.02813828 9.4034729 -0.03573608 C13.05940876 -0.05036732 16.71530124 -0.05716132 20.3712616 -0.06268311 C22.90850832 -0.06843374 25.44575502 -0.07419148 27.98300171 -0.07995605 C32.62611402 -0.08912457 37.26921328 -0.09542378 41.91233236 -0.09845281 C48.73982062 -0.10293165 55.5671085 -0.12047266 62.39453584 -0.1494534 C68.3132011 -0.173702 74.23181662 -0.18139846 80.15053368 -0.18312836 C82.66593708 -0.18615673 85.18133959 -0.19419143 87.69671059 -0.20731354 C91.21574217 -0.22436104 94.7342856 -0.22249664 98.25334167 -0.21600342 C99.81289078 -0.22982559 99.81289078 -0.22982559 101.40394592 -0.243927 C107.57100894 -0.20826675 112.2362205 0.29874171 116.9962616 4.64044189 C120.32691675 8.91793882 121.4787526 11.71260656 121.46525574 17.07086182 C121.46518021 18.07167282 121.46510468 19.07248383 121.46502686 20.10362244 C121.45986557 21.18182755 121.45470428 22.26003265 121.4493866 23.37091064 C121.44726418 25.02924675 121.44726418 25.02924675 121.44509888 26.72108459 C121.43949549 30.25673107 121.42694239 33.79231452 121.41423035 37.32794189 C121.40921578 39.72312327 121.4046528 42.11830564 121.40055847 44.51348877 C121.38952495 50.38916136 121.3727835 56.26479713 121.35173035 62.14044189 C118.12335958 60.27669438 115.20637316 58.32537874 112.3556366 55.92559814 C111.631828 55.32167236 110.90801941 54.71774658 110.16227722 54.09552002 C109.42042175 53.47096924 108.67856628 52.84641846 107.91423035 52.20294189 C99.61814637 44.20835733 99.61814637 44.20835733 89.28923035 40.70294189 C82.78893759 41.42519665 79.14442041 45.01649928 74.35173035 49.14044189 C73.97403503 48.68153564 73.59633972 48.22262939 73.2071991 47.74981689 C67.5173633 41.40704912 61.16547843 38.81605566 52.78923035 37.64044189 C45.36324068 38.72058585 39.20090173 41.2626584 34.35173035 47.14044189 C33.79485535 47.77981689 33.23798035 48.41919189 32.66423035 49.07794189 C29.05676214 54.74682051 28.70416001 60.60402883 29.35173035 67.14044189 C30.97781205 74.33077192 35.07186499 79.13846418 40.35173035 84.14044189 C39.23794904 86.64644983 38.16150713 88.34795813 36.28923035 90.39044189 C33.88193555 93.80724741 32.91502682 96.94808807 33.35173035 101.14044189 C35.20148826 104.80516605 37.56514001 107.64895521 40.35173035 110.64044189 C44.123837 114.7605518 47.79994633 118.94476073 51.41423035 123.20294189 C51.90342957 123.77528564 52.39262878 124.34762939 52.89665222 124.93731689 C56.35173035 129.02014169 56.35173035 129.02014169 56.35173035 130.14044189 C48.37161854 130.23329142 40.39173398 130.30428189 32.41121483 130.34769058 C28.70515685 130.36852905 24.99946955 130.39677692 21.29362488 130.44219971 C17.71447248 130.48579302 14.1356757 130.50960713 10.55627823 130.51995087 C9.19354787 130.52731825 7.83083608 130.54170527 6.4682579 130.56336212 C-6.76281236 130.76521482 -6.76281236 130.76521482 -11.64826965 126.14044189 C-15.03510514 122.29592594 -16.76923626 119.9810701 -16.78871155 114.87817383 C-16.79442169 113.98378098 -16.80013184 113.08938812 -16.80601501 112.16789246 C-16.80713287 111.18398026 -16.80825073 110.20006805 -16.80940247 109.18634033 C-16.81436737 108.15205399 -16.81933228 107.11776764 -16.82444763 106.05213928 C-16.83909584 102.61802513 -16.8458762 99.1839572 -16.85139465 95.74981689 C-16.85714456 93.36808266 -16.86290231 90.98634845 -16.8686676 88.60461426 C-16.8791856 83.60434757 -16.88502283 78.604097 -16.88850403 73.6038208 C-16.89398599 67.19672359 -16.9180045 60.78983919 -16.94647598 54.38280869 C-16.96510213 49.46030049 -16.97030799 44.5378435 -16.9718399 39.61530304 C-16.97486773 37.25340869 -16.98290061 34.89151528 -16.99602509 32.52965546 C-17.01308232 29.22364648 -17.01120569 25.91815673 -17.00471497 22.61212158 C-17.01392975 21.6363063 -17.02314453 20.66049103 -17.03263855 19.65510559 C-16.99575421 13.65686464 -16.36489505 9.11882547 -12.14826965 4.49591064 C-7.99305699 1.26047162 -5.21252309 0.01867869 0 0 Z M4.35173035 17.14044189 C2.082955 19.55925119 2.082955 19.55925119 0.35173035 22.14044189 C0.89881761 24.67788505 0.89881761 24.67788505 2.35173035 27.14044189 C5.26177937 28.22267556 5.26177937 28.22267556 8.35173035 28.14044189 C9.34173035 27.48044189 10.33173035 26.82044189 11.35173035 26.14044189 C11.75970434 22.94464559 11.91854754 20.99066768 10.10173035 18.26544189 C8.13768047 16.77993683 8.13768047 16.77993683 4.35173035 17.14044189 Z " fill="#E4167F" transform="translate(197.6482696533203,136.85955810546875)"/>
<path d="M0 0 C2.97 0 5.94 0 9 0 C9 3.3 9 6.6 9 10 C10.32 9.34 11.64 8.68 13 8 C17.23244524 7.5382787 19.27106961 7.52461062 22.875 9.875 C25.06741169 12.06741169 25.94440704 12.98976237 26.11352539 16.06298828 C26.10828857 16.89040527 26.10305176 17.71782227 26.09765625 18.5703125 C26.09443359 19.46621094 26.09121094 20.36210937 26.08789062 21.28515625 C26.07951172 22.22230469 26.07113281 23.15945313 26.0625 24.125 C26.05798828 25.06988281 26.05347656 26.01476562 26.04882812 26.98828125 C26.03702357 29.32558387 26.02055759 31.66276061 26 34 C23.36 34 20.72 34 18 34 C17.96261719 32.95199219 17.92523438 31.90398437 17.88671875 30.82421875 C17.82105485 29.44527695 17.75460765 28.06637229 17.6875 26.6875 C17.66494141 25.99720703 17.64238281 25.30691406 17.61914062 24.59570312 C17.4163003 20.50793266 17.4163003 20.50793266 15.45703125 17.01953125 C14.97621094 16.68308594 14.49539062 16.34664063 14 16 C11.90628782 16.39662601 11.90628782 16.39662601 10 18 C9.53411453 20.82517725 9.30384499 23.29079561 9.25 26.125 C9.22035156 26.87910156 9.19070312 27.63320313 9.16015625 28.41015625 C9.08942068 30.27285953 9.04245017 32.13643755 9 34 C6.03 34 3.06 34 0 34 C0 22.78 0 11.56 0 0 Z " fill="#DC1D7D" transform="translate(161,288)"/>
<path d="M0 0 C4.73090467 2.45643127 6.55925216 4.6990652 10 9 C4.06 14.94 -1.88 20.88 -8 27 C-16.72307692 19.52307692 -16.72307692 19.52307692 -17.40625 15.765625 C-17.58831562 10.8801975 -17.39379254 7.78027742 -14.1875 3.9375 C-10.20611784 -0.24049363 -5.59784416 -0.76479085 0 0 Z " fill="#E51680" transform="translate(255,186)"/>
<path d="M0 0 C8.25 0 16.5 0 25 0 C25 2.31 25 4.62 25 7 C22.36 7 19.72 7 17 7 C17 15.25 17 23.5 17 32 C14.03 32 11.06 32 8 32 C8 23.75 8 15.5 8 7 C5.36 7 2.72 7 0 7 C0 4.69 0 2.38 0 0 Z " fill="#D8217C" transform="translate(132,290)"/>
<path d="M0 0 C0.66 0.66 1.32 1.32 2 2 C2.33 1.34 2.66 0.68 3 0 C4.65 0 6.3 0 8 0 C8 8.25 8 16.5 8 25 C6.35 25 4.7 25 3 25 C2.67 24.34 2.34 23.68 2 23 C1.319375 23.495 0.63875 23.99 -0.0625 24.5 C-3.74140375 26.37858915 -5.9091225 26.50238846 -10 26 C-14.01024988 23.88137742 -16.36255029 22.22882655 -18 18 C-18.55252857 13.18510821 -18.56190965 8.58656843 -16.9375 4 C-11.84722877 -1.25447353 -6.69331706 -1.47479867 0 0 Z M-10.875 6.0625 C-13.24108907 8.88526062 -13.24108907 8.88526062 -13.625 12.5 C-12.83397068 16.9297642 -11.63525215 18.39210172 -8 21 C-4.95691709 21.75015195 -4.95691709 21.75015195 -2 21 C0.94427735 18.93104835 1.84332955 17.49090073 2.9375 14.0625 C3.01245915 10.38950179 2.178742 8.90498934 0 6 C-1.86963998 3.73701563 -1.86963998 3.73701563 -4.8125 3.5625 C-8.14853031 3.76761645 -8.14853031 3.76761645 -10.875 6.0625 Z " fill="#D62279" transform="translate(310,297)"/>
<path d="M0 0 C2.97 0 5.94 0 9 0 C9 1.98 9 3.96 9 6 C10.65 6 12.3 6 14 6 C14 8.64 14 11.28 14 14 C12.35 14 10.7 14 9 14 C9.33 17.3 9.66 20.6 10 24 C11.32 24.33 12.64 24.66 14 25 C14 27.31 14 29.62 14 32 C12.39667209 32.08121924 10.79215974 32.13929134 9.1875 32.1875 C7.84751953 32.23970703 7.84751953 32.23970703 6.48046875 32.29296875 C4 32 4 32 2.23828125 30.67578125 C-0.31834619 27.21586589 -0.10700135 23.95112513 -0.0625 19.8125 C-0.05347656 18.72582031 -0.04445312 17.63914062 -0.03515625 16.51953125 C-0.02355469 15.68808594 -0.01195312 14.85664063 0 14 C-0.99 14 -1.98 14 -3 14 C-3 11.36 -3 8.72 -3 6 C-2.01 6 -1.02 6 0 6 C0 4.02 0 2.04 0 0 Z " fill="#E1197F" transform="translate(246,290)"/>
<path d="M0 0 C1.65 0 3.3 0 5 0 C5.33 3.96 5.66 7.92 6 12 C6.72445313 11.13375 7.44890625 10.2675 8.1953125 9.375 C9.17098302 8.24922633 10.14759542 7.12426848 11.125 6 C11.599375 5.42765625 12.07375 4.8553125 12.5625 4.265625 C15.13749451 1.34265825 16.42692689 0.06382253 20.3671875 -0.375 C21.23601562 -0.25125 22.10484375 -0.1275 23 0 C21.38462556 3.89917968 18.72075127 6.71293772 15.875 9.75 C15.40707031 10.25660156 14.93914062 10.76320313 14.45703125 11.28515625 C13.30873459 12.52719141 12.15491328 13.76411494 11 15 C12.37940653 19.26636118 14.30522002 21.58208355 17.5625 24.625 C21.89604344 28.68813033 21.89604344 28.68813033 23 32 C19.83984375 32.34375 19.83984375 32.34375 16 32 C13.81452925 30.16836737 12.29900761 28.67799259 10.5625 26.5 C10.11712891 25.97535156 9.67175781 25.45070313 9.21289062 24.91015625 C8.123748 23.62192304 7.05927415 22.31290317 6 21 C5.67 24.63 5.34 28.26 5 32 C3.35 32 1.7 32 0 32 C0 21.44 0 10.88 0 0 Z " fill="#DB1C7C" transform="translate(265,290)"/>
<path d="M0 0 C0 2.64 0 5.28 0 8 C-0.99 8.33 -1.98 8.66 -3 9 C-2.01 9.33 -1.02 9.66 0 10 C0 12.64 0 15.28 0 18 C-1.32 18 -2.64 18 -4 18 C-4 23.94 -4 29.88 -4 36 C-6.64 36 -9.28 36 -12 36 C-12 30.06 -12 24.12 -12 18 C-12.99 18 -13.98 18 -15 18 C-15 15.36 -15 12.72 -15 10 C-14.01 10 -13.02 10 -12 10 C-11.9071875 8.3603125 -11.9071875 8.3603125 -11.8125 6.6875 C-11 3 -11 3 -8.8125 1.0625 C-5.68081981 -0.12057918 -3.32080666 -0.23168419 0 0 Z " fill="#E4197F" transform="translate(241,286)"/>
<path d="M0 0 C3.43529218 2.74823374 4.92819951 4.80210279 5.45703125 9.19140625 C5.76507079 16.90424248 5.76507079 16.90424248 2.93359375 20.421875 C-1.33361954 24.30115981 -3.84754136 25.41140356 -9.7890625 25.234375 C-13.24297331 24.70198027 -15.2348512 23.20324923 -17.81640625 20.921875 C-20.73889595 16.53814046 -21.37593025 13.14409901 -20.81640625 7.921875 C-19.22432454 3.78246254 -17.69220331 1.15339452 -13.81640625 -1.078125 C-9.45894934 -2.94560653 -4.04083145 -2.39842899 0 0 Z M-14.81640625 6.921875 C-16.0741291 10.77889173 -16.00938912 12.434823 -14.50390625 16.234375 C-13.09128687 19.00096281 -13.09128687 19.00096281 -10.81640625 19.921875 C-6.80337385 20.45694599 -5.27712592 20.25239128 -1.94140625 17.859375 C0.42468282 15.03661438 0.42468282 15.03661438 0.80859375 11.421875 C0.01756443 6.9921108 -1.1811541 5.52977328 -4.81640625 2.921875 C-9.66213838 2.03184257 -11.96482719 2.90854151 -14.81640625 6.921875 Z " fill="#D32279" transform="translate(361.81640625,298.078125)"/>
<path d="M0 0 C8 0 8 0 11 1 C13.63804589 0.60602665 13.63804589 0.60602665 16 0 C16 2.97 16 5.94 16 9 C14.02 9.66 12.04 10.32 10 11 C9.67 15.95 9.34 20.9 9 26 C6.03 26 3.06 26 0 26 C0 17.42 0 8.84 0 0 Z " fill="#E11B7E" transform="translate(193,296)"/>
<path d="M0 0 C2.97 0 5.94 0 9 0 C9 8.58 9 17.16 9 26 C6.03 26 3.06 26 0 26 C0 17.42 0 8.84 0 0 Z " fill="#D6237D" transform="translate(213,296)"/>
<path d="M0 0 C0.99 0.33 1.98 0.66 3 1 C3 1.66 3 2.32 3 3 C3.99 2.67 4.98 2.34 6 2 C6.33 3.65 6.66 5.3 7 7 C8.32 7 9.64 7 11 7 C11 12.94 11 18.88 11 25 C8.36 25 5.72 25 3 25 C2.98582031 23.98679687 2.97164062 22.97359375 2.95703125 21.9296875 C3.02360107 13.43425517 3.02360107 13.43425517 -0.5625 6.0625 C-1.366875 5.381875 -2.17125 4.70125 -3 4 C-2.01 2.68 -1.02 1.36 0 0 Z " fill="#E61981" transform="translate(176,297)"/>
<path d="M0 0 C0 1.65 0 3.3 0 5 C-2.31 5.66 -4.62 6.32 -7 7 C-7.33 13.27 -7.66 19.54 -8 26 C-9.65 26 -11.3 26 -13 26 C-13 17.75 -13 9.5 -13 1 C-10.66666667 1 -8.33333333 1 -6 1 C-3 0 -3 0 0 0 Z " fill="#D12B7E" transform="translate(338,296)"/>
<path d="M0 0 C0 2.64 0 5.28 0 8 C-1.5778125 8.8971875 -1.5778125 8.8971875 -3.1875 9.8125 C-3.82300781 10.17859375 -4.45851562 10.5446875 -5.11328125 10.921875 C-6.68911175 11.82234957 -8.28032769 12.69583027 -9.875 13.5625 C-12.30132749 14.88966037 -12.30132749 14.88966037 -13 18 C-13.66 18 -14.32 18 -15 18 C-15 15.36 -15 12.72 -15 10 C-14.01 10 -13.02 10 -12 10 C-11.9071875 8.3603125 -11.9071875 8.3603125 -11.8125 6.6875 C-11 3 -11 3 -8.8125 1.0625 C-5.68081981 -0.12057918 -3.32080666 -0.23168419 0 0 Z " fill="#E21982" transform="translate(241,286)"/>
<path d="M0 0 C0.94148531 2.82445592 1.07311695 4.14171618 0.87890625 7.01171875 C0.83056641 7.76904297 0.78222656 8.52636719 0.73242188 9.30664062 C0.67634766 10.09232422 0.62027344 10.87800781 0.5625 11.6875 C0.51029297 12.48478516 0.45808594 13.28207031 0.40429688 14.10351562 C0.27480978 16.06936522 0.13809959 18.03473665 0 20 C-1.98 19.67 -3.96 19.34 -6 19 C-6.02707139 16.75006641 -6.04642829 14.50003905 -6.0625 12.25 C-6.07410156 10.99703125 -6.08570313 9.7440625 -6.09765625 8.453125 C-6.02021027 5.71463499 -5.82780815 3.58119707 -5 1 C-3.35 0.67 -1.7 0.34 0 0 Z " fill="#E51580" transform="translate(147,301)"/>
<path d="M0 0 C2.17585822 3.26378733 2.24605016 4.15904315 2.22705078 7.93041992 C2.22689972 8.93123093 2.22674866 9.93204193 2.22659302 10.96318054 C2.21627045 12.04138565 2.20594788 13.11959076 2.1953125 14.23046875 C2.1924826 15.33602615 2.18965271 16.44158356 2.18673706 17.5806427 C2.17553002 21.11637128 2.15042427 24.6518478 2.125 28.1875 C2.11497089 30.58267864 2.10584492 32.97786124 2.09765625 35.37304688 C2.07558897 41.24878411 2.04210618 47.12437405 2 53 C0.35 52.01 -1.3 51.02 -3 50 C-1.515 49.505 -1.515 49.505 0 49 C0 32.83 0 16.66 0 0 Z " fill="#C32B77" transform="translate(317,146)"/>
<path d="M0 0 C0.99 0 1.98 0 3 0 C3 4.95 3 9.9 3 15 C-4.23287671 16.3260274 -4.23287671 16.3260274 -7.5 14.9375 C-9.62568877 12.19181867 -9.42333268 10.38666142 -9 7 C-8.34 6.01 -7.68 5.02 -7 4 C-3.875 3.8125 -3.875 3.8125 -1 4 C-0.67 2.68 -0.34 1.36 0 0 Z M-4 6 C-4.99 6.495 -4.99 6.495 -6 7 C-6 8.65 -6 10.3 -6 12 C-4.10820797 12.6814823 -4.10820797 12.6814823 -2 13 C-1.34 12.34 -0.68 11.68 0 11 C-0.08571661 8.90708843 -0.08571661 8.90708843 -1 7 C-1.99 6.67 -2.98 6.34 -4 6 Z " fill="#464646" transform="translate(158,342)"/>
<path d="M0 0 C0.99 0.33 1.98 0.66 3 1 C3.33 1.99 3.66 2.98 4 4 C4.66 2.68 5.32 1.36 6 0 C7.32 0.33 8.64 0.66 10 1 C10.33 2.32 10.66 3.64 11 5 C11.66 3.35 12.32 1.7 13 0 C13.99 0 14.98 0 16 0 C15.01 3.63 14.02 7.26 13 11 C11.68 10.67 10.36 10.34 9 10 C8.67 9.01 8.34 8.02 8 7 C7.34 8.32 6.68 9.64 6 11 C4.125 10.875 4.125 10.875 2 10 C0.40155515 6.40349908 0 3.96602757 0 0 Z " fill="#414141" transform="translate(276,346)"/>
<path d="M0 0 C2.375 1 2.375 1 4 3 C4.66441897 6.58338321 4.74426185 9.78567803 2.8125 12.9375 C0.42316214 14.33814633 -1.21671973 14.86746284 -4 15 C-6.2831838 13.8584081 -8.19012683 12.80987317 -10 11 C-10.36395977 7.14202645 -10.56007535 4.84011302 -8.375 1.5625 C-5.30182885 -0.45932313 -3.61752119 -0.52755517 0 0 Z M-7 4 C-7.41666667 7 -7.41666667 7 -7 10 C-6.34 10.66 -5.68 11.32 -5 12 C-2.44539786 12.07272562 -2.44539786 12.07272562 0 11 C1.37466625 8.52363988 1.37466625 8.52363988 2 6 C0.71034824 4.62437146 -0.62689293 3.29233607 -2 2 C-4.32357511 1.81509993 -4.32357511 1.81509993 -7 4 Z " fill="#474747" transform="translate(135,343)"/>
<path d="M0 0 C3.5 0.25 3.5 0.25 5.5 2.25 C5.875 5.6875 5.875 5.6875 5.5 9.25 C3.8125 11.25 3.8125 11.25 1.5 12.25 C-1.87036311 12.00925978 -3.08798021 11.66201979 -5.5 9.25 C-5.75 5.75 -5.75 5.75 -5.5 2.25 C-3.5 0.25 -3.5 0.25 0 0 Z M-0.5 2.25 C-1.16 2.91 -1.82 3.57 -2.5 4.25 C-0.85 4.25 0.8 4.25 2.5 4.25 C2.17 3.59 1.84 2.93 1.5 2.25 C0.84 2.25 0.18 2.25 -0.5 2.25 Z M-2.5 7.25 C-2.17 7.91 -1.84 8.57 -1.5 9.25 C-0.18 8.92 1.14 8.59 2.5 8.25 C2.5 7.92 2.5 7.59 2.5 7.25 C0.85 7.25 -0.8 7.25 -2.5 7.25 Z " fill="#454545" transform="translate(349.5,345.75)"/>
<path d="M0 0 C3.5 0.25 3.5 0.25 5.5 2.25 C5.875 5.6875 5.875 5.6875 5.5 9.25 C3.8125 11.25 3.8125 11.25 1.5 12.25 C-1.87036311 12.00925978 -3.08798021 11.66201979 -5.5 9.25 C-5.75 5.75 -5.75 5.75 -5.5 2.25 C-3.5 0.25 -3.5 0.25 0 0 Z M-0.5 2.25 C-1.16 2.91 -1.82 3.57 -2.5 4.25 C-0.85 4.25 0.8 4.25 2.5 4.25 C2.17 3.59 1.84 2.93 1.5 2.25 C0.84 2.25 0.18 2.25 -0.5 2.25 Z M-2.5 7.25 C-2.17 7.91 -1.84 8.57 -1.5 9.25 C-0.18 8.92 1.14 8.59 2.5 8.25 C2.5 7.92 2.5 7.59 2.5 7.25 C0.85 7.25 -0.8 7.25 -2.5 7.25 Z " fill="#444444" transform="translate(267.5,345.75)"/>
<path d="M0 0 C1.65 0 3.3 0 5 0 C5 3.96 5 7.92 5 12 C4.67 12 4.34 12 4 12 C4 8.37 4 4.74 4 1 C3.34 1 2.68 1 2 1 C2.16242188 1.61875 2.32484375 2.2375 2.4921875 2.875 C3.20447796 7.2583259 3.14427404 11.56697182 3.125 16 C3.12886719 16.88945312 3.13273437 17.77890625 3.13671875 18.6953125 C3.13041234 22.92060791 3.08073173 26.88292676 2 31 C2.66 31 3.32 31 4 31 C4 27.37 4 23.74 4 20 C4.33 20 4.66 20 5 20 C5 23.96 5 27.92 5 32 C3.35 32 1.7 32 0 32 C0 21.44 0 10.88 0 0 Z " fill="#C8307C" transform="translate(265,290)"/>
<path d="M0 0 C0.89203125 0.09796875 1.7840625 0.1959375 2.703125 0.296875 C1.0414446 4.42104563 -1.92025518 7.36241539 -4.921875 10.546875 C-5.4375 11.10117187 -5.953125 11.65546875 -6.484375 12.2265625 C-7.75112535 13.5871462 -9.02345315 14.94253337 -10.296875 16.296875 C-10.626875 14.976875 -10.956875 13.656875 -11.296875 12.296875 C-11.626875 12.956875 -11.956875 13.616875 -12.296875 14.296875 C-12.956875 14.296875 -13.616875 14.296875 -14.296875 14.296875 C-12.72796348 10.72509772 -10.58404753 7.99827979 -8.046875 5.046875 C-7.29921875 4.15484375 -6.5515625 3.2628125 -5.78125 2.34375 C-3.296875 0.296875 -3.296875 0.296875 0 0 Z " fill="#CE2677" transform="translate(285.296875,289.703125)"/>
<path d="M0 0 C0.66 1.32 1.32 2.64 2 4 C-0.97 3.505 -0.97 3.505 -4 3 C-4 3.66 -4 4.32 -4 5 C-3.195625 5.226875 -2.39125 5.45375 -1.5625 5.6875 C-0.716875 6.120625 0.12875 6.55375 1 7 C1.8125 9.625 1.8125 9.625 2 12 C0.3125 13.5625 0.3125 13.5625 -2 15 C-4.75 14.6875 -4.75 14.6875 -7 14 C-7.33 12.68 -7.66 11.36 -8 10 C-7.01 10 -6.02 10 -5 10 C-5 10.66 -5 11.32 -5 12 C-4.01 11.67 -3.02 11.34 -2 11 C-1.67 10.34 -1.34 9.68 -1 9 C-1.969375 8.855625 -2.93875 8.71125 -3.9375 8.5625 C-7 8 -7 8 -8 7 C-8.04080783 5.00041636 -8.04254356 2.99954746 -8 1 C-5.29120665 -0.35439668 -2.99066732 -0.06501451 0 0 Z " fill="#3D3D3D" transform="translate(310,343)"/>
<path d="M0 0 C0.66 1.32 1.32 2.64 2 4 C-0.97 3.505 -0.97 3.505 -4 3 C-4 3.66 -4 4.32 -4 5 C-3.195625 5.226875 -2.39125 5.45375 -1.5625 5.6875 C-0.716875 6.120625 0.12875 6.55375 1 7 C1.8125 9.625 1.8125 9.625 2 12 C0.3125 13.5625 0.3125 13.5625 -2 15 C-4.75 14.6875 -4.75 14.6875 -7 14 C-7.33 12.68 -7.66 11.36 -8 10 C-7.01 10 -6.02 10 -5 10 C-5 10.66 -5 11.32 -5 12 C-4.01 11.67 -3.02 11.34 -2 11 C-1.67 10.34 -1.34 9.68 -1 9 C-2.175625 8.7834375 -2.175625 8.7834375 -3.375 8.5625 C-6 8 -6 8 -8 7 C-8 5.02 -8 3.04 -8 1 C-5.29120665 -0.35439668 -2.99066732 -0.06501451 0 0 Z " fill="#464646" transform="translate(180,343)"/>
<path d="M0 0 C0.99 0 1.98 0 3 0 C4.38671875 1.75 4.38671875 1.75 5.6875 4 C6.12449219 4.7425 6.56148437 5.485 7.01171875 6.25 C7.33785156 6.8275 7.66398438 7.405 8 8 C8.33 5.36 8.66 2.72 9 0 C9.66 0 10.32 0 11 0 C11 4.62 11 9.24 11 14 C7 13 7 13 4.75 9.9375 C4.1725 8.968125 3.595 7.99875 3 7 C2.67 9.31 2.34 11.62 2 14 C1.34 14 0.68 14 0 14 C0 9.38 0 4.76 0 0 Z " fill="#434343" transform="translate(247,343)"/>
<path d="M0 0 C0 0.66 0 1.32 0 2 C-2.63892176 3.78305524 -4.97178863 4.99059621 -8 6 C-9.02700444 8.32891096 -9.02700444 8.32891096 -9.6875 11.0625 C-9.93886719 11.98160156 -10.19023437 12.90070313 -10.44921875 13.84765625 C-10.63097656 14.55792969 -10.81273437 15.26820313 -11 16 C-11.66 16 -12.32 16 -13 16 C-13.77377754 5.06394412 -13.77377754 5.06394412 -11 1.25 C-7.04421353 -0.39824436 -4.26337114 -0.28904211 0 0 Z " fill="#DB1C7A" transform="translate(356,297)"/>
<path d="M0 0 C3.4375 -0.5 3.4375 -0.5 7 0 C9.0625 2.1875 9.0625 2.1875 10 5 C9.10394232 8.85304802 8.34846101 9.76769266 5 12 C1.67759676 11.6758631 0.39223697 11.39223697 -2 9 C-2.34490322 4.94738713 -2.30163882 3.45245824 0 0 Z M3 2 C2.01 2.495 2.01 2.495 1 3 C1 4.65 1 6.3 1 8 C2.89179203 8.6814823 2.89179203 8.6814823 5 9 C5.66 8.34 6.32 7.68 7 7 C6.91428339 4.90708843 6.91428339 4.90708843 6 3 C5.01 2.67 4.02 2.34 3 2 Z " fill="#4B4B4B" transform="translate(187,346)"/>
<path d="M0 0 C2.4375 0.75 2.4375 0.75 4.4375 2.75 C4.25 5.25 4.25 5.25 3.4375 7.75 C0.4375 9.75 0.4375 9.75 -2.1875 9.4375 C-4.5625 8.75 -4.5625 8.75 -5.5625 7.75 C-5.8125 4.8125 -5.8125 4.8125 -5.5625 1.75 C-2.5625 -0.25 -2.5625 -0.25 0 0 Z " fill="#CD2876" transform="translate(218.5625,285.25)"/>
<path d="M0 0 C2.31 0 4.62 0 7 0 C7.33 1.32 7.66 2.64 8 4 C6.35 3.67 4.7 3.34 3 3 C4.65 3.99 6.3 4.98 8 6 C7.67 7.65 7.34 9.3 7 11 C4.6875 11.625 4.6875 11.625 2 12 C1.01 11.34 0.02 10.68 -1 10 C-0.814375 9.4225 -0.62875 8.845 -0.4375 8.25 C0.04394633 5.77399031 -0.36051901 4.39805371 -1 2 C-0.67 1.34 -0.34 0.68 0 0 Z M2 7 C2 7.66 2 8.32 2 9 C2.99 9 3.98 9 5 9 C5 8.34 5 7.68 5 7 C4.01 7 3.02 7 2 7 Z " fill="#444444" transform="translate(222,346)"/>
<path d="M0 0 C2.31 0 4.62 0 7 0 C7.33 1.32 7.66 2.64 8 4 C5.83125748 3.49396008 4.00032373 3.00016187 2 2 C2 2.66 2 3.32 2 4 C3.98 4.66 5.96 5.32 8 6 C7.67 7.65 7.34 9.3 7 11 C4.6875 11.625 4.6875 11.625 2 12 C1.01 11.34 0.02 10.68 -1 10 C-0.814375 9.4225 -0.62875 8.845 -0.4375 8.25 C0.04394633 5.77399031 -0.36051901 4.39805371 -1 2 C-0.67 1.34 -0.34 0.68 0 0 Z M2 7 C2 7.66 2 8.32 2 9 C2.99 9 3.98 9 5 9 C5 8.34 5 7.68 5 7 C4.01 7 3.02 7 2 7 Z " fill="#484848" transform="translate(359,346)"/>
<path d="M0 0 C1.32 0.33 2.64 0.66 4 1 C4.33 2.65 4.66 4.3 5 6 C5.66 6 6.32 6 7 6 C7.66 4.02 8.32 2.04 9 0 C9.99 0.33 10.98 0.66 12 1 C10.02 5.95 8.04 10.9 6 16 C5.01 16 4.02 16 3 16 C3.0928125 14.5459375 3.0928125 14.5459375 3.1875 13.0625 C3.21625881 8.38440054 1.64771207 4.32524418 0 0 Z " fill="#434343" transform="translate(323,346)"/>
<path d="M0 0 C1.32 0.33 2.64 0.66 4 1 C3.67 8.26 3.34 15.52 3 23 C2.01 23 1.02 23 0 23 C0 15.41 0 7.82 0 0 Z " fill="#E2187D" transform="translate(326,298)"/>
<path d="M0 0 C0.99 0 1.98 0 3 0 C3.33 2.64 3.66 5.28 4 8 C4.99 8.33 5.98 8.66 7 9 C7.33 6.03 7.66 3.06 8 0 C8.66 0 9.32 0 10 0 C10 3.63 10 7.26 10 11 C6.6875 11.6875 6.6875 11.6875 3 12 C1.28125 10.8125 1.28125 10.8125 0 9 C-0.29296875 6.73828125 -0.29296875 6.73828125 -0.1875 4.3125 C-0.16042969 3.50425781 -0.13335937 2.69601562 -0.10546875 1.86328125 C-0.07066406 1.24839844 -0.03585938 0.63351562 0 0 Z " fill="#454545" transform="translate(200,346)"/>
<path d="M0 0 C0.66 0 1.32 0 2 0 C2.16834933 1.77067416 2.33461909 3.54154612 2.5 5.3125 C2.5928125 6.29863281 2.685625 7.28476562 2.78125 8.30078125 C3.04410987 11.54428431 3 14.74450032 3 18 C3.66 18.33 4.32 18.66 5 19 C4.01 19 3.02 19 2 19 C2 22.63 2 26.26 2 30 C1.34 30 0.68 30 0 30 C0 20.1 0 10.2 0 0 Z " fill="#E3197E" transform="translate(267,291)"/>
<path d="M0 0 C1.98 0 3.96 0 6 0 C6.14285714 7.42857143 6.14285714 7.42857143 5 11 C3.35 11 1.7 11 0 11 C0 7.37 0 3.74 0 0 Z " fill="#E6157F" transform="translate(215,297)"/>
<path d="M0 0 C0 2.64 0 5.28 0 8 C-0.99 8 -1.98 8 -3 8 C-2.67 6.35 -2.34 4.7 -2 3 C-2.66 3 -3.32 3 -4 3 C-4 3.66 -4 4.32 -4 5 C-4.94875 5.28875 -5.8975 5.5775 -6.875 5.875 C-10.05211578 6.76825109 -10.05211578 6.76825109 -12 9 C-11.8125 6.1875 -11.8125 6.1875 -11 3 C-7.43810319 -0.05305441 -4.59334282 -0.32046578 0 0 Z " fill="#D9237B" transform="translate(241,286)"/>
<path d="M0 0 C1.26026798 2.52053595 0.91874445 3.8542098 0.5625 6.625 C0.40974609 7.85089844 0.40974609 7.85089844 0.25390625 9.1015625 C0.17011719 9.72804688 0.08632813 10.35453125 0 11 C0.66 11 1.32 11 2 11 C2.33 9.68 2.66 8.36 3 7 C3.66 9.31 4.32 11.62 5 14 C4.34 14 3.68 14 3 14 C3.66 15.65 4.32 17.3 5 19 C1.98425729 17.96008872 1.02008949 17.03085171 -0.75 14.3125 C-2.44547713 9.81948561 -2.8477102 6.06629361 -1 1.5625 C-0.67 1.046875 -0.34 0.53125 0 0 Z " fill="#C92A7C" transform="translate(343,302)"/>
<path d="M0 0 C0.66 0 1.32 0 2 0 C1.67 1.11375 1.34 2.2275 1 3.375 C-1.23533318 12.47714805 -0.16759946 19.66480109 4 28 C2.02 27.67 0.04 27.34 -2 27 C-2.05827558 23.4375692 -2.09368885 19.87526181 -2.125 16.3125 C-2.14175781 15.30509766 -2.15851563 14.29769531 -2.17578125 13.25976562 C-2.18544922 11.79506836 -2.18544922 11.79506836 -2.1953125 10.30078125 C-2.20578613 9.40528564 -2.21625977 8.50979004 -2.22705078 7.5871582 C-1.97703456 4.73831743 -1.18016512 2.59105457 0 0 Z " fill="#D0267A" transform="translate(227,186)"/>
<path d="M0 0 C0.99 0 1.98 0 3 0 C3 0.99 3 1.98 3 3 C3.66 3 4.32 3 5 3 C5 3.66 5 4.32 5 5 C4.34 5 3.68 5 3 5 C3 7.31 3 9.62 3 12 C3.66 12 4.32 12 5 12 C5 12.66 5 13.32 5 14 C3.35 14 1.7 14 0 14 C-0.19532961 12.2300132 -0.38098882 10.45895721 -0.5625 8.6875 C-0.66691406 7.70136719 -0.77132813 6.71523438 -0.87890625 5.69921875 C-1 3 -1 3 0 0 Z " fill="#424142" transform="translate(316,343)"/>
<path d="M0 0 C1.98 1.65 3.96 3.3 6 5 C5.06725891 6.12894876 4.12859878 7.25300876 3.1875 8.375 C2.40439453 9.31472656 2.40439453 9.31472656 1.60546875 10.2734375 C0 12 0 12 -3 14 C-3.20606757 10.29078371 -2.72384825 8.24489083 -1 5 C-0.62331656 3.34259285 -0.27942455 1.67654729 0 0 Z " fill="#CF2178" transform="translate(259,189)"/>
<path d="M0 0 C2.98356441 1.81608269 4.61660986 2.93830422 5.8125 6.25 C5.874375 6.8275 5.93625 7.405 6 8 C4.68 8 3.36 8 2 8 C1.34 6.68 0.68 5.36 0 4 C-0.66 4 -1.32 4 -2 4 C-2 3.34 -2 2.68 -2 2 C-4.64 2.33 -7.28 2.66 -10 3 C-7.28992221 -0.82599218 -4.40950061 -0.53218111 0 0 Z " fill="#D2257B" transform="translate(181,296)"/>
<path d="M0 0 C-6.15034169 7.48291572 -6.15034169 7.48291572 -10 10 C-11.32 8.35 -12.64 6.7 -14 5 C-12.02 5 -10.04 5 -8 5 C-7.9175 4.38125 -7.835 3.7625 -7.75 3.125 C-7 1 -7 1 -5.125 -0.3125 C-3 -1 -3 -1 0 0 Z " fill="#DB1E7B" transform="translate(256,203)"/>
<path d="M0 0 C0.86625 0.144375 1.7325 0.28875 2.625 0.4375 C1.13402342 4.2327131 -1.13200849 6.04792731 -4.375 8.4375 C-4.375 7.7775 -4.375 7.1175 -4.375 6.4375 C-6.025 6.7675 -7.675 7.0975 -9.375 7.4375 C-4.43845733 0.57535558 -4.43845733 0.57535558 0 0 Z " fill="#CE297B" transform="translate(285.375,289.5625)"/>
<path d="M0 0 C3.5625 0.1875 3.5625 0.1875 5.5625 2.1875 C5.6875 5.8125 5.6875 5.8125 5.5625 9.1875 C4.5725 8.1975 3.5825 7.2075 2.5625 6.1875 C2.8925 5.1975 3.2225 4.2075 3.5625 3.1875 C1.5825 3.1875 -0.3975 3.1875 -2.4375 3.1875 C-2.7675 4.1775 -3.0975 5.1675 -3.4375 6.1875 C-4.0975 5.8575 -4.7575 5.5275 -5.4375 5.1875 C-4.31932898 0.23559976 -4.31932898 0.23559976 0 0 Z " fill="#4A4A4A" transform="translate(349.4375,345.8125)"/>
<path d="M0 0 C0.99 0 1.98 0 3 0 C3 4.62 3 9.24 3 14 C2.01 14 1.02 14 0 14 C0 9.38 0 4.76 0 0 Z " fill="#494949" transform="translate(371,343)"/>
<path d="M0 0 C2.97 0 5.94 0 9 0 C9 1.98 9 3.96 9 6 C8.34 6 7.68 6 7 6 C7 5.01 7 4.02 7 3 C6.21625 3.495 5.4325 3.99 4.625 4.5 C2 6 2 6 0 6 C0 4.02 0 2.04 0 0 Z " fill="#D0287D" transform="translate(246,290)"/>
<path d="M0 0 C4.12320587 3.37037333 7.8803976 6.63255665 11 11 C11 11.33 11 11.66 11 12 C7.625 12.1875 7.625 12.1875 4 12 C3.34 11.01 2.68 10.02 2 9 C2.99 8.34 3.98 7.68 5 7 C4.175 6.21625 3.35 5.4325 2.5 4.625 C0 2 0 2 0 0 Z " fill="#CC2777" transform="translate(277,310)"/>
<path d="M0 0 C2 1.8125 2 1.8125 4 4 C4 4.99 4 5.98 4 7 C6.97 7.33 9.94 7.66 13 8 C9.27420911 10.48386059 7.41288598 10.3804212 3 10 C0.0625 8.5 0.0625 8.5 -2 7 C-0.68 6.67 0.64 6.34 2 6 C2 5.34 2 4.68 2 4 C1.34 4 0.68 4 0 4 C0 2.68 0 1.36 0 0 Z " fill="#C82974" transform="translate(297,313)"/>
<path d="M0 0 C0.66 0.33 1.32 0.66 2 1 C2 4.96 2 8.92 2 13 C1.01 13 0.02 13 -1 13 C-1.22151549 11.20991533 -1.42682213 9.41781838 -1.625 7.625 C-1.74101562 6.62726563 -1.85703125 5.62953125 -1.9765625 4.6015625 C-1.98429687 3.74304688 -1.99203125 2.88453125 -2 2 C-1.34 1.34 -0.68 0.68 0 0 Z " fill="#E61883" transform="translate(314,299)"/>
<path d="M0 0 C0.66 1.32 1.32 2.64 2 4 C-0.97 3.505 -0.97 3.505 -4 3 C-4.33 4.32 -4.66 5.64 -5 7 C-5.99 7 -6.98 7 -8 7 C-8 5.02 -8 3.04 -8 1 C-5.29120665 -0.35439668 -2.99066732 -0.06501451 0 0 Z " fill="#434244" transform="translate(310,343)"/>
<path d="M0 0 C1.32 0 2.64 0 4 0 C4 2.31 4 4.62 4 7 C2.39667209 7.08121924 0.79215974 7.13929134 -0.8125 7.1875 C-1.70582031 7.22230469 -2.59914062 7.25710938 -3.51953125 7.29296875 C-6 7 -6 7 -7.82421875 5.61328125 C-9 4 -9 4 -9 2 C-8.34 2 -7.68 2 -7 2 C-6.01 3.485 -6.01 3.485 -5 5 C-1.93443402 5.73343428 -1.93443402 5.73343428 1 6 C1.33 4.68 1.66 3.36 2 2 C1.34 2 0.68 2 0 2 C0 1.34 0 0.68 0 0 Z " fill="#CC2C79" transform="translate(256,315)"/>
<path d="M0 0 C0.99 0.495 0.99 0.495 2 1 C1.67 2.98 1.34 4.96 1 7 C2.98 6.34 4.96 5.68 7 5 C6.125 9.875 6.125 9.875 5 11 C4.76807135 12.51469448 4.58784762 14.03754562 4.4375 15.5625 C4.31181641 16.80193359 4.31181641 16.80193359 4.18359375 18.06640625 C4.12300781 18.70449219 4.06242188 19.34257812 4 20 C3.67 20 3.34 20 3 20 C3 16.04 3 12.08 3 8 C2.01 8 1.02 8 0 8 C0 5.36 0 2.72 0 0 Z " fill="#C92977" transform="translate(243,296)"/>
<path d="M0 0 C0.33 0 0.66 0 1 0 C1.33 1.65 1.66 3.3 2 5 C3.65 5 5.3 5 7 5 C7 5.99 7 6.98 7 8 C4.75 8.6875 4.75 8.6875 2 9 C-0.3125 7.5625 -0.3125 7.5625 -2 6 C-1.49396008 3.83125748 -1.00016187 2.00032373 0 0 Z " fill="#454545" transform="translate(187,349)"/>
<path d="M0 0 C1.258125 -0.020625 2.51625 -0.04125 3.8125 -0.0625 C4.52019531 -0.07410156 5.22789062 -0.08570313 5.95703125 -0.09765625 C8 0 8 0 11 1 C13.63804589 0.60602665 13.63804589 0.60602665 16 0 C15.67 0.99 15.34 1.98 15 3 C14.34 2.67 13.68 2.34 13 2 C13 2.66 13 3.32 13 4 C11.02 4 9.04 4 7 4 C6.67 3.01 6.34 2.02 6 1 C4.02 1 2.04 1 0 1 C0 0.67 0 0.34 0 0 Z " fill="#CF287A" transform="translate(193,296)"/>
<path d="M0 0 C0.66 0.33 1.32 0.66 2 1 C-1.75 6.75 -1.75 6.75 -4 9 C-4.45811675 10.97235333 -4.45811675 10.97235333 -4.625 13.125 C-4.74875 14.40375 -4.8725 15.6825 -5 17 C-5.33 17 -5.66 17 -6 17 C-6.92017937 8.5309417 -6.92017937 8.5309417 -4.6640625 4.77734375 C-3.18027954 3.08109421 -1.67546697 1.50592567 0 0 Z " fill="#D0267A" transform="translate(244,187)"/>
<path d="M0 0 C1.65 0 3.3 0 5 0 C4.51917969 0.32613281 4.03835937 0.65226562 3.54296875 0.98828125 C1.17627334 4.07397274 1.42700473 7.44155967 1.3125 11.1875 C1.27833984 11.93708984 1.24417969 12.68667969 1.20898438 13.45898438 C1.12665706 15.30546838 1.06164719 17.15270994 1 19 C-1.31 19 -3.62 19 -6 19 C-6 18.67 -6 18.34 -6 18 C-4.02 18 -2.04 18 0 18 C0 12.06 0 6.12 0 0 Z " fill="#D52A7F" transform="translate(169,303)"/>
<path d="M0 0 C3.26954202 0.56371414 4.82575883 1.49962266 7 4 C7.33 3.01 7.66 2.02 8 1 C8.99 1 9.98 1 11 1 C11 2.32 11 3.64 11 5 C8.5 6.75 8.5 6.75 6 8 C5.38125 7.05125 4.7625 6.1025 4.125 5.125 C2.18029031 2.05554891 2.18029031 2.05554891 0 0 Z " fill="#DD1C7F" transform="translate(175,303)"/>
<path d="M0 0 C-0.99 0 -1.98 0 -3 0 C-3 0.66 -3 1.32 -3 2 C-0.69 2.33 1.62 2.66 4 3 C3.67 3.99 3.34 4.98 3 6 C-5.57142857 2.85714286 -5.57142857 2.85714286 -9 1 C-5.57367167 -0.61798838 -3.61944899 -1.34053666 0 0 Z " fill="#CE2A77" transform="translate(306,297)"/>
<path d="M0 0 C0.99 0.33 1.98 0.66 3 1 C2.525625 1.495 2.05125 1.99 1.5625 2.5 C-0.61940874 5.99105399 -0.60422647 8.91034017 -1 13 C-1.33 13.66 -1.66 14.32 -2 15 C-3.73956658 13.26043342 -3.37190386 10.8063378 -3.5625 8.4375 C-3.64628906 7.42558594 -3.73007813 6.41367188 -3.81640625 5.37109375 C-3.87699219 4.58863281 -3.93757812 3.80617187 -4 3 C-2.68 2.67 -1.36 2.34 0 2 C0 1.34 0 0.68 0 0 Z " fill="#D12378" transform="translate(232,225)"/>
<path d="M0 0 C1.9375 0.75 1.9375 0.75 4 2 C4.625 4.0625 4.625 4.0625 5 6 C5.66 6.33 6.32 6.66 7 7 C6.34 8.32 5.68 9.64 5 11 C3.35 11 1.7 11 0 11 C0.66 10.34 1.32 9.68 2 9 C2.34490322 4.94738713 2.30163882 3.45245824 0 0 Z " fill="#CF2279" transform="translate(206,154)"/>
<path d="M0 0 C0.66 0 1.32 0 2 0 C2 4.95 2 9.9 2 15 C1.34 15 0.68 15 0 15 C0 10.05 0 5.1 0 0 Z " fill="#474747" transform="translate(215,342)"/>
<path d="M0 0 C0.66 0 1.32 0 2 0 C2 4.95 2 9.9 2 15 C1.34 15 0.68 15 0 15 C0 10.05 0 5.1 0 0 Z " fill="#434343" transform="translate(338,342)"/>
<path d="M0 0 C0.66 0 1.32 0 2 0 C2 4.95 2 9.9 2 15 C1.34 15 0.68 15 0 15 C0 10.05 0 5.1 0 0 Z " fill="#424242" transform="translate(143,342)"/>
<path d="M0 0 C0.66 0 1.32 0 2 0 C1.67 1.65 1.34 3.3 1 5 C-1.64 5.66 -4.28 6.32 -7 7 C-6.67 5.68 -6.34 4.36 -6 3 C-4.02 2.67 -2.04 2.34 0 2 C0 1.34 0 0.68 0 0 Z " fill="#E8157E" transform="translate(237,289)"/>
<path d="M0 0 C0.99 0 1.98 0 3 0 C3 3.3 3 6.6 3 10 C2.01 9.67 1.02 9.34 0 9 C0 6.03 0 3.06 0 0 Z " fill="#4C4C4C" transform="translate(200,346)"/>
<path d="M0 0 C3.93548431 3.06093224 6.68116787 5.49115974 9 10 C6.03 9.505 6.03 9.505 3 9 C2 6 1 3 0 0 Z " fill="#D22475" transform="translate(245,257)"/>
<path d="M0 0 C1.32 0.33 2.64 0.66 4 1 C4 2.65 4 4.3 4 6 C4.66 6 5.32 6 6 6 C6 6.66 6 7.32 6 8 C4.68 8 3.36 8 2 8 C0.74335022 5.09399739 0 3.20395416 0 0 Z " fill="#E3187F" transform="translate(293,311)"/>
<path d="M0 0 C1.17539996 0.92652701 2.34010577 1.86663387 3.5 2.8125 C4.1496875 3.33457031 4.799375 3.85664063 5.46875 4.39453125 C7 6 7 6 7 9 C6.236875 8.319375 5.47375 7.63875 4.6875 6.9375 C3.800625 6.298125 2.91375 5.65875 2 5 C1.01 5.33 0.02 5.66 -1 6 C-1.33 5.01 -1.66 4.02 -2 3 C-1.34 3 -0.68 3 0 3 C0 2.01 0 1.02 0 0 Z " fill="#D5237C" transform="translate(235,246)"/>
<path d="M0 0 C2.3125 0.1875 2.3125 0.1875 4 1 C3.29875 1.391875 2.5975 1.78375 1.875 2.1875 C-1.36074432 4.22742577 -4.10257782 6.50686929 -7 9 C-7.99 7.68 -8.98 6.36 -10 5 C-8.9171875 5.1546875 -8.9171875 5.1546875 -7.8125 5.3125 C-4.73320316 5.26679684 -4.73320316 5.26679684 -2.4375 2.4375 C-1.633125 1.633125 -0.82875 0.82875 0 0 Z " fill="#C42E77" transform="translate(279,177)"/>
<path d="M0 0 C2.31 0 4.62 0 7 0 C7.33 1.32 7.66 2.64 8 4 C2.25 3.125 2.25 3.125 0 2 C0 1.34 0 0.68 0 0 Z " fill="#3D3D3D" transform="translate(222,346)"/>
<path d="M0 0 C2.31 0 4.62 0 7 0 C7.33 1.32 7.66 2.64 8 4 C5.36 3.67 2.72 3.34 0 3 C0 2.01 0 1.02 0 0 Z " fill="#414141" transform="translate(359,346)"/>
<path d="M0 0 C-1.98 2.31 -3.96 4.62 -6 7 C-7 5 -7 5 -7 1 C-3.375 -1.125 -3.375 -1.125 0 0 Z " fill="#D02075" transform="translate(256,203)"/>
<path d="M0 0 C0.99 0.66 1.98 1.32 3 2 C1.3125 3.5625 1.3125 3.5625 -1 5 C-3.75 4.6875 -3.75 4.6875 -6 4 C-5 2 -5 2 -2.625 0.75 C-1.75875 0.5025 -0.8925 0.255 0 0 Z " fill="#3C3C3C" transform="translate(270,353)"/>
<path d="M0 0 C-0.33 1.65 -0.66 3.3 -1 5 C-2.32 5 -3.64 5 -5 5 C-5 3.68 -5 2.36 -5 1 C-3 0 -3 0 0 0 Z " fill="#E11A76" transform="translate(281,296)"/>
<path d="M0 0 C7.38461538 -0.36923077 7.38461538 -0.36923077 10.5 1.5 C10.995 1.995 11.49 2.49 12 3 C9.125 3.625 9.125 3.625 6 4 C5.34 3.34 4.68 2.68 4 2 C2.68252676 1.30251417 1.35085807 0.63040043 0 0 Z " fill="#D52279" transform="translate(247,186)"/>
<path d="M0 0 C1.98 0.99 1.98 0.99 4 2 C3.67 3.65 3.34 5.3 3 7 C2.01 6.67 1.02 6.34 0 6 C0 4.02 0 2.04 0 0 Z " fill="#484848" transform="translate(262,349)"/>
<path d="M0 0 C0 1.32 0 2.64 0 4 C-1.98 4 -3.96 4 -6 4 C-6 3.01 -6 2.02 -6 1 C-3 0 -3 0 0 0 Z " fill="#E6157E" transform="translate(221,289)"/>
<path d="M0 0 C2 1.1875 2 1.1875 4 3 C4.25 5.6875 4.25 5.6875 4 8 C3.01 8.33 2.02 8.66 1 9 C0.67 6.03 0.34 3.06 0 0 Z " fill="#DE1B78" transform="translate(231,241)"/>
<path d="M0 0 C0.66 0 1.32 0 2 0 C2.99 1.98 3.98 3.96 5 6 C2.03 5.505 2.03 5.505 -1 5 C-0.67 3.35 -0.34 1.7 0 0 Z " fill="#DA1D7A" transform="translate(226,208)"/>
<path d="M0 0 C0.99 0.99 1.98 1.98 3 3 C2.67 3.99 2.34 4.98 2 6 C0.35 6.33 -1.3 6.66 -3 7 C-2.67 6.01 -2.34 5.02 -2 4 C-1.34 3.67 -0.68 3.34 0 3 C0 2.01 0 1.02 0 0 Z " fill="#3F3F3F" transform="translate(351,351)"/>
<path d="M0 0 C1.670625 0.061875 1.670625 0.061875 3.375 0.125 C2.375 2.125 2.375 2.125 -0.6875 3.25 C-2.1415625 3.683125 -2.1415625 3.683125 -3.625 4.125 C-4.285 3.465 -4.945 2.805 -5.625 2.125 C-3.625 0.125 -3.625 0.125 0 0 Z " fill="#3E3E3E" transform="translate(267.625,345.875)"/>
<path d="M0 0 C0.33 0.99 0.66 1.98 1 3 C-1.64738916 4.4606285 -2.89448334 5 -6 5 C-6 4.01 -6 3.02 -6 2 C-4.02 1.34 -2.04 0.68 0 0 Z " fill="#3C3C3C" transform="translate(137,353)"/>
<path d="M0 0 C0.99 0 1.98 0 3 0 C3 2.31 3 4.62 3 7 C2.01 7.33 1.02 7.66 0 8 C0 5.36 0 2.72 0 0 Z " fill="#D62779" transform="translate(226,296)"/>
<path d="M0 0 C1.98 0 3.96 0 6 0 C6.33 0.66 6.66 1.32 7 2 C5.02 2.66 3.04 3.32 1 4 C0.67 2.68 0.34 1.36 0 0 Z " fill="#E51974" transform="translate(295,299)"/>
<path d="M0 0 C0.99 0.33 1.98 0.66 3 1 C1.86695008 4.39914975 0.87481525 5.05254451 -2 7 C-1.125 1.125 -1.125 1.125 0 0 Z " fill="#D12A77" transform="translate(231,288)"/>
<path d="M0 0 C0.66 0 1.32 0 2 0 C1.67 1.98 1.34 3.96 1 6 C0.01 6 -0.98 6 -2 6 C-1.34 4.02 -0.68 2.04 0 0 Z " fill="#3A3A3A" transform="translate(234,354)"/>
</svg>
